<mxfile host="app.diagrams.net" modified="2022-10-25T09:40:36.633Z" agent="5.0 (Windows NT 10.0; Win64; x64) AppleWebKit/537.36 (KHTML, like Gecko) Chrome/106.0.0.0 Safari/537.36" etag="P1aGQRxqRiu9syg2VXVv" version="20.5.1" type="github">
  <diagram id="0xq7A29wWLnAw-vvbfKA" name="Page-1">
    <mxGraphModel dx="1038" dy="684" grid="1" gridSize="10" guides="1" tooltips="1" connect="1" arrows="1" fold="1" page="1" pageScale="1" pageWidth="850" pageHeight="1100" math="0" shadow="0">
      <root>
        <mxCell id="0" />
        <mxCell id="1" parent="0" />
        <mxCell id="syNlQZ1L9LTMgfkHT_uF-1" value="render()" style="whiteSpace=wrap;html=1;" vertex="1" parent="1">
          <mxGeometry x="220" y="380" width="150" height="390" as="geometry" />
        </mxCell>
        <mxCell id="syNlQZ1L9LTMgfkHT_uF-2" value="" style="edgeStyle=none;orthogonalLoop=1;jettySize=auto;html=1;rounded=0;" edge="1" parent="1">
          <mxGeometry width="80" relative="1" as="geometry">
            <mxPoint x="70" y="430" as="sourcePoint" />
            <mxPoint x="220" y="430" as="targetPoint" />
            <Array as="points" />
          </mxGeometry>
        </mxCell>
        <mxCell id="syNlQZ1L9LTMgfkHT_uF-3" value="startNumber: number,&lt;br&gt;endNumber: number" style="text;html=1;strokeColor=none;fillColor=none;align=center;verticalAlign=middle;whiteSpace=wrap;rounded=0;" vertex="1" parent="1">
          <mxGeometry x="90" y="397.5" width="120" height="30" as="geometry" />
        </mxCell>
        <mxCell id="syNlQZ1L9LTMgfkHT_uF-4" value="" style="edgeStyle=none;orthogonalLoop=1;jettySize=auto;html=1;rounded=0;" edge="1" parent="1">
          <mxGeometry width="80" relative="1" as="geometry">
            <mxPoint x="220" y="732" as="sourcePoint" />
            <mxPoint x="70" y="732" as="targetPoint" />
            <Array as="points" />
          </mxGeometry>
        </mxCell>
        <mxCell id="syNlQZ1L9LTMgfkHT_uF-6" value="isStartLessThanEnd" style="whiteSpace=wrap;html=1;" vertex="1" parent="1">
          <mxGeometry x="760" y="395" width="120" height="60" as="geometry" />
        </mxCell>
        <mxCell id="syNlQZ1L9LTMgfkHT_uF-7" value="" style="edgeStyle=none;orthogonalLoop=1;jettySize=auto;html=1;rounded=0;" edge="1" parent="1">
          <mxGeometry width="80" relative="1" as="geometry">
            <mxPoint x="370" y="440" as="sourcePoint" />
            <mxPoint x="500" y="440" as="targetPoint" />
            <Array as="points" />
          </mxGeometry>
        </mxCell>
        <mxCell id="syNlQZ1L9LTMgfkHT_uF-8" value="" style="edgeStyle=none;orthogonalLoop=1;jettySize=auto;html=1;rounded=0;" edge="1" parent="1">
          <mxGeometry width="80" relative="1" as="geometry">
            <mxPoint x="500" y="480" as="sourcePoint" />
            <mxPoint x="370" y="480" as="targetPoint" />
            <Array as="points" />
          </mxGeometry>
        </mxCell>
        <mxCell id="syNlQZ1L9LTMgfkHT_uF-10" value="isValid: boolean" style="text;html=1;strokeColor=none;fillColor=none;align=center;verticalAlign=middle;whiteSpace=wrap;rounded=0;" vertex="1" parent="1">
          <mxGeometry x="380" y="450" width="120" height="30" as="geometry" />
        </mxCell>
        <mxCell id="syNlQZ1L9LTMgfkHT_uF-17" value="multiplicationTable: string" style="text;html=1;strokeColor=none;fillColor=none;align=center;verticalAlign=middle;whiteSpace=wrap;rounded=0;" vertex="1" parent="1">
          <mxGeometry x="70" y="697" width="150" height="30" as="geometry" />
        </mxCell>
        <mxCell id="syNlQZ1L9LTMgfkHT_uF-18" value="startNumber: number,&lt;br&gt;endNumber: number" style="text;html=1;strokeColor=none;fillColor=none;align=center;verticalAlign=middle;whiteSpace=wrap;rounded=0;" vertex="1" parent="1">
          <mxGeometry x="380" y="410" width="120" height="30" as="geometry" />
        </mxCell>
        <mxCell id="syNlQZ1L9LTMgfkHT_uF-19" value="isValidRange" style="whiteSpace=wrap;html=1;" vertex="1" parent="1">
          <mxGeometry x="760" y="490" width="120" height="60" as="geometry" />
        </mxCell>
        <mxCell id="syNlQZ1L9LTMgfkHT_uF-20" value="" style="edgeStyle=none;orthogonalLoop=1;jettySize=auto;html=1;rounded=0;" edge="1" parent="1">
          <mxGeometry width="80" relative="1" as="geometry">
            <mxPoint x="630" y="500" as="sourcePoint" />
            <mxPoint x="760" y="500" as="targetPoint" />
            <Array as="points" />
          </mxGeometry>
        </mxCell>
        <mxCell id="syNlQZ1L9LTMgfkHT_uF-21" value="" style="edgeStyle=none;orthogonalLoop=1;jettySize=auto;html=1;rounded=0;" edge="1" parent="1">
          <mxGeometry width="80" relative="1" as="geometry">
            <mxPoint x="760" y="540" as="sourcePoint" />
            <mxPoint x="630" y="540" as="targetPoint" />
            <Array as="points" />
          </mxGeometry>
        </mxCell>
        <mxCell id="syNlQZ1L9LTMgfkHT_uF-22" value="isValidRange: boolean" style="text;html=1;strokeColor=none;fillColor=none;align=center;verticalAlign=middle;whiteSpace=wrap;rounded=0;" vertex="1" parent="1">
          <mxGeometry x="640" y="510" width="120" height="30" as="geometry" />
        </mxCell>
        <mxCell id="syNlQZ1L9LTMgfkHT_uF-23" value="startNumber: number,&lt;br&gt;endNumber: number" style="text;html=1;strokeColor=none;fillColor=none;align=center;verticalAlign=middle;whiteSpace=wrap;rounded=0;" vertex="1" parent="1">
          <mxGeometry x="635" y="460" width="120" height="30" as="geometry" />
        </mxCell>
        <mxCell id="syNlQZ1L9LTMgfkHT_uF-25" value="getMultiplicationTable" style="whiteSpace=wrap;html=1;" vertex="1" parent="1">
          <mxGeometry x="525" y="680" width="120" height="60" as="geometry" />
        </mxCell>
        <mxCell id="syNlQZ1L9LTMgfkHT_uF-26" value="" style="edgeStyle=none;orthogonalLoop=1;jettySize=auto;html=1;rounded=0;" edge="1" parent="1">
          <mxGeometry width="80" relative="1" as="geometry">
            <mxPoint x="385" y="690" as="sourcePoint" />
            <mxPoint x="515" y="690" as="targetPoint" />
            <Array as="points" />
          </mxGeometry>
        </mxCell>
        <mxCell id="syNlQZ1L9LTMgfkHT_uF-27" value="" style="edgeStyle=none;orthogonalLoop=1;jettySize=auto;html=1;rounded=0;" edge="1" parent="1">
          <mxGeometry width="80" relative="1" as="geometry">
            <mxPoint x="515" y="730" as="sourcePoint" />
            <mxPoint x="385" y="730" as="targetPoint" />
            <Array as="points" />
          </mxGeometry>
        </mxCell>
        <mxCell id="syNlQZ1L9LTMgfkHT_uF-29" value="startNumber: number,&lt;br&gt;endNumber: number" style="text;html=1;strokeColor=none;fillColor=none;align=center;verticalAlign=middle;whiteSpace=wrap;rounded=0;" vertex="1" parent="1">
          <mxGeometry x="390" y="650" width="120" height="30" as="geometry" />
        </mxCell>
        <mxCell id="syNlQZ1L9LTMgfkHT_uF-30" value="multiplicationTable: string" style="text;html=1;strokeColor=none;fillColor=none;align=center;verticalAlign=middle;whiteSpace=wrap;rounded=0;" vertex="1" parent="1">
          <mxGeometry x="370" y="697" width="150" height="30" as="geometry" />
        </mxCell>
        <mxCell id="syNlQZ1L9LTMgfkHT_uF-35" value="isValid" style="whiteSpace=wrap;html=1;" vertex="1" parent="1">
          <mxGeometry x="500" y="380" width="120" height="170" as="geometry" />
        </mxCell>
        <mxCell id="syNlQZ1L9LTMgfkHT_uF-36" value="" style="edgeStyle=none;orthogonalLoop=1;jettySize=auto;html=1;rounded=0;" edge="1" parent="1">
          <mxGeometry width="80" relative="1" as="geometry">
            <mxPoint x="625" y="409" as="sourcePoint" />
            <mxPoint x="755" y="409" as="targetPoint" />
            <Array as="points" />
          </mxGeometry>
        </mxCell>
        <mxCell id="syNlQZ1L9LTMgfkHT_uF-37" value="" style="edgeStyle=none;orthogonalLoop=1;jettySize=auto;html=1;rounded=0;" edge="1" parent="1">
          <mxGeometry width="80" relative="1" as="geometry">
            <mxPoint x="755" y="449" as="sourcePoint" />
            <mxPoint x="625" y="449" as="targetPoint" />
            <Array as="points" />
          </mxGeometry>
        </mxCell>
        <mxCell id="syNlQZ1L9LTMgfkHT_uF-38" value="isStartLessThanEnd: boolean" style="text;html=1;strokeColor=none;fillColor=none;align=center;verticalAlign=middle;whiteSpace=wrap;rounded=0;" vertex="1" parent="1">
          <mxGeometry x="635" y="419" width="120" height="30" as="geometry" />
        </mxCell>
        <mxCell id="syNlQZ1L9LTMgfkHT_uF-39" value="startNumber: number,&lt;br&gt;endNumber: number" style="text;html=1;strokeColor=none;fillColor=none;align=center;verticalAlign=middle;whiteSpace=wrap;rounded=0;" vertex="1" parent="1">
          <mxGeometry x="630" y="369" width="120" height="30" as="geometry" />
        </mxCell>
      </root>
    </mxGraphModel>
  </diagram>
</mxfile>
